<?xml version="1.0" encoding="UTF-8"?>
<svg xmlns="http://www.w3.org/2000/svg" viewBox="0 0 386.98 49.23">
  <defs>
    <style>
      .cls-1 {
        fill: #727171;
      }

      .cls-2 {
        fill: #e83828;
      }

      .cls-3 {
        fill: #036eb8;
      }

      .cls-4 {
        fill: none;
        stroke: #231815;
        stroke-miterlimit: 10;
      }

      .cls-5 {
        fill: #00a29a;
      }

      .cls-6 {
        fill: #595757;
      }

      .cls-7 {
        fill: #040000;
      }
    </style>
    <mask
	    id="ERASE_MASK"
	    maskUnits="userSpaceOnUse"
	    maskContentUnits="userSpaceOnUse"
	    x="0" y="0" width="386.98" height="49.23">

	    <!-- 白底：默认全部可见 -->
	    <rect
	    	x="0" y="0"
	    	width="386.98" height="49.23"
	    	fill="white"/>
    </mask>

  </defs>
  
  <g id="MASK_RUNTIME"></g>
  <g id="_图层_1" data-name="图层 1" mask="url(#ERASE_MASK)">
    <path id="L_J" class="cls-5" d="M63.28,38.99c0,3.12-2.24,4.68-6.72,4.68s-6.66-1.56-6.66-4.68v-7.92c0-.92-.8-1.38-2.4-1.38s-2.4.46-2.4,1.38v7.32c0,2.96,1.01,5.28,3.03,6.96,2.02,1.68,4.83,2.52,8.43,2.52s6.42-.84,8.46-2.52c2.04-1.68,3.06-4,3.06-6.96V3.65c0-.92-.8-1.38-2.4-1.38s-2.4.46-2.4,1.38v35.34Z"/>
    <path id="L_I" class="cls-1" d="M84.28,47.27c-1.6,0-2.4-.46-2.4-1.38V3.65c0-.92.8-1.38,2.4-1.38s2.4.46,2.4,1.38v42.24c0,.92-.8,1.38-2.4,1.38Z"/>
    <path id="L_N" class="cls-1" d="M117.1,41.51l-7.8-31.5c-.24-1-.47-1.73-.69-2.19-.22-.46-.57-.75-1.05-.87s-1.24-.18-2.28-.18v39.12c0,.92-.8,1.38-2.4,1.38s-2.4-.46-2.4-1.38V6.89c0-1.76.24-2.92.72-3.48.48-.56,1.44-.84,2.88-.84h1.32c1.92,0,3.38.13,4.38.39,1,.26,1.76.8,2.28,1.62.52.82.98,2.07,1.38,3.75l7.8,31.5c.24.96.47,1.67.69,2.13.22.46.58.76,1.08.9.5.14,1.25.21,2.25.21V3.95c0-.92.8-1.38,2.4-1.38s2.4.46,2.4,1.38v38.82c0,1.84-.23,3.05-.69,3.63-.46.58-1.43.87-2.91.87h-1.32c-1.88,0-3.33-.13-4.35-.39s-1.78-.81-2.28-1.65c-.5-.84-.97-2.08-1.41-3.72Z"/>
    <path id="L_Y" class="cls-2" d="M168.7,3.47l-5.22,20.58c-.68,2.64-1.55,4.57-2.61,5.79-1.06,1.22-2.53,1.99-4.41,2.31v13.74c0,.92-.8,1.38-2.4,1.38s-2.4-.46-2.4-1.38v-13.8c-1.92-.32-3.4-1.09-4.44-2.31-1.04-1.22-1.9-3.13-2.58-5.73l-5.22-20.58c-.12-.8.64-1.2,2.28-1.2,1.44,0,2.28.46,2.52,1.38l5.1,19.74c.44,1.76,1,2.98,1.68,3.66.68.68,1.7,1.02,3.06,1.02s2.38-.33,3.06-.99c.68-.66,1.24-1.89,1.68-3.69l5.1-19.74c.16-.92,1-1.38,2.52-1.38,1.6,0,2.36.4,2.28,1.2Z"/>
    <path id="L_A" class="cls-1" d="M180.46,47.27c-1.6,0-2.4-.46-2.4-1.38V11.15c0-3.08,1.22-5.43,3.66-7.05,2.44-1.62,5.96-2.43,10.56-2.43s7.81.8,10.11,2.4c2.3,1.6,3.45,3.96,3.45,7.08v34.74c0,.92-.8,1.38-2.4,1.38s-2.4-.46-2.4-1.38v-16.26h-18.18v16.26c0,.92-.8,1.38-2.4,1.38ZM182.86,10.55v14.88h18.18v-14.88c0-1.52-.77-2.68-2.31-3.48-1.54-.8-3.79-1.2-6.75-1.2s-5.22.4-6.78,1.2c-1.56.8-2.34,1.96-2.34,3.48Z"/>
    <path id="L_N2" class="cls-1" d="M235.66,41.51l-7.8-31.5c-.24-1-.47-1.73-.69-2.19-.22-.46-.57-.75-1.05-.87-.48-.12-1.24-.18-2.28-.18v39.12c0,.92-.8,1.38-2.4,1.38s-2.4-.46-2.4-1.38V6.89c0-1.76.24-2.92.72-3.48.48-.56,1.44-.84,2.88-.84h1.32c1.92,0,3.38.13,4.38.39,1,.26,1.76.8,2.28,1.62.52.82.98,2.07,1.38,3.75l7.8,31.5c.24.96.47,1.67.69,2.13.22.46.58.76,1.08.9.5.14,1.25.21,2.25.21V3.95c0-.92.8-1.38,2.4-1.38s2.4.46,2.4,1.38v38.82c0,1.84-.23,3.05-.69,3.63-.46.58-1.43.87-2.91.87h-1.32c-1.88,0-3.33-.13-4.35-.39-1.02-.26-1.78-.81-2.28-1.65-.5-.84-.97-2.08-1.41-3.72Z"/>
    <path id="L_G" class="cls-1" d="M284.2,38.99v-5.88c0-2.04-.36-3.43-1.08-4.17-.72-.74-2.08-1.11-4.08-1.11h-4.62c-.8,0-1.2-.7-1.2-2.1s.4-2.1,1.2-2.1h4.62c3.56,0,6.11.72,7.65,2.16s2.31,3.88,2.31,7.32v5.28c0,3.04-1.21,5.38-3.63,7.02-2.42,1.64-5.91,2.46-10.47,2.46s-7.88-.8-10.2-2.4c-2.32-1.6-3.48-3.96-3.48-7.08V11.15c0-3.08,1.17-5.43,3.51-7.05,2.34-1.62,5.71-2.43,10.11-2.43s7.66.8,9.9,2.4,3.36,3.96,3.36,7.08v3.3c0,.92-.8,1.38-2.4,1.38s-2.4-.46-2.4-1.38v-3.9c0-3.12-2.82-4.68-8.46-4.68-2.84,0-5.02.4-6.54,1.2-1.52.8-2.28,1.96-2.28,3.48v28.44c0,3.12,2.96,4.68,8.88,4.68,3.04,0,5.35-.4,6.93-1.2,1.58-.8,2.37-1.96,2.37-3.48Z"/>
    <path id="L_X" class="cls-3" d="M319.66,46.07l4.62-15.78c.48-1.64,1.02-2.95,1.62-3.93.6-.98,1.42-1.71,2.46-2.19-1-.48-1.8-1.21-2.4-2.19s-1.16-2.29-1.68-3.93l-4.62-14.58c-.12-.8.64-1.2,2.28-1.2,1.32,0,2.08.46,2.28,1.38l4.5,13.74c.56,1.72,1.25,2.93,2.07,3.63.82.7,1.99,1.05,3.51,1.05s2.69-.35,3.51-1.05c.82-.7,1.51-1.91,2.07-3.63l4.5-13.74c.2-.92.96-1.38,2.28-1.38,1.6,0,2.36.4,2.28,1.2l-4.62,14.58c-.52,1.64-1.09,2.95-1.71,3.93-.62.98-1.43,1.71-2.43,2.19,1.04.48,1.87,1.21,2.49,2.19.62.98,1.17,2.29,1.65,3.93l4.62,15.78c.08.8-.68,1.2-2.28,1.2-1.32,0-2.08-.46-2.28-1.38l-4.5-14.94c-.52-1.76-1.2-2.98-2.04-3.66-.84-.68-2.02-1.02-3.54-1.02s-2.7.35-3.54,1.05c-.84.7-1.52,1.91-2.04,3.63l-4.5,14.94c-.2.92-.96,1.38-2.28,1.38-1.64,0-2.4-.4-2.28-1.2Z"/>
    <path id="L_U" class="cls-6" d="M364,3.65v35.34c0,3.12,2.96,4.68,8.88,4.68,3.04,0,5.35-.4,6.93-1.2,1.58-.8,2.37-1.96,2.37-3.48V3.65c0-.92.8-1.38,2.4-1.38s2.4.46,2.4,1.38v34.74c0,3.04-1.21,5.38-3.63,7.02-2.42,1.64-5.91,2.46-10.47,2.46s-7.88-.8-10.2-2.4c-2.32-1.6-3.48-3.96-3.48-7.08V3.65c0-.92.78-1.38,2.34-1.38,1.64,0,2.46.46,2.46,1.38Z"/>
  </g>

  <g id="Motion">
    <path id="PATH_J_1" class="cls-4 motion-path" d="M47.63,28.07v10.92c0,2.09.87,6.95,8.93,6.95s8.99-4.86,8.99-6.95L65.69,0"/>
    <path id="PATH_I_1" class="cls-4 motion-path" d="M84.28,49.2V0"/>
    <path id="PATH_N_1" class="cls-4 motion-path" d="M119.3,40.97l-7.8-31.48c-.28-1.16-.56-2.02-.85-2.64-.51-1.07-1.42-1.81-2.55-2.09-.68-.17-1.58-.25-2.83-.25s-2.27,1.02-2.27,2.27v42.43"/>
    <path id="PATH_N_2" class="cls-4 motion-path" d="M127.58,1.61v41.36c0,1.32-1.02,2.4-2.27,2.4s-2.16-.1-2.87-.31c-1.13-.33-2.02-1.12-2.52-2.23-.29-.64-.56-1.5-.84-2.7"/>
    <path id="PATH_Y_2" class="cls-4 motion-path" d="M154.06,32.15v15.72"/>
    <path id="PATH_Y_1" class="cls-4 motion-path" d="M166.95.93l-5.95,23.03c-.55,2.25-1.28,3.77-2.3,4.75-1.12,1.08-2.68,1.63-4.64,1.63s-3.55-.57-4.67-1.69c-.98-.98-1.73-2.53-2.27-4.71l-5.95-23.02"/>
    <line id="PATH_A_2" class="cls-4 motion-path" x1="201.04" y1="27.53" x2="182.86" y2="27.53"/>
    <path id="PATH_A_1" class="cls-4 motion-path" d="M203.57,49.2V11.15c0-2.38-.79-4.04-2.48-5.22-1.9-1.32-4.87-1.99-8.81-1.99s-7.26.69-9.31,2.05c-1.81,1.2-2.65,2.84-2.65,5.16v38.05"/>
    <path id="PATH_G_1" class="cls-4 motion-path" d="M272.19,25.57h6.85c2.66,0,4.53.59,5.71,1.79,1.16,1.2,1.72,3.08,1.72,5.75v5.88c0,2.37-1.28,4.33-3.62,5.5-1.92.97-4.52,1.45-7.95,1.45-9.21,0-11.15-3.78-11.15-6.95V10.55c0-2.35,1.24-4.3,3.49-5.49,1.87-.98,4.35-1.46,7.6-1.46,8.87,0,10.73,3.78,10.73,6.95v6.59"/>
    <path id="PATH_X_1" class="cls-4 motion-path" d="M321.05,48.56l5.5-18.26c.66-2.17,1.56-3.72,2.76-4.72,1.26-1.05,2.94-1.58,4.99-1.58s3.72.51,4.97,1.52c1.22.99,2.13,2.55,2.79,4.78l5.5,18.25"/>
    <path id="PATH_X_2" class="cls-4 motion-path" d="M347.77.57l-5.74,17.53c-.7,2.14-1.6,3.67-2.75,4.65-1.24,1.06-2.91,1.59-4.98,1.59s-3.74-.54-4.98-1.59c-1.16-.98-2.06-2.51-2.76-4.65l-5.74-17.52"/>
    <path id="PATH_N2_1" class="cls-4 motion-path" d="M237.84,41l-7.8-31.48c-.28-1.16-.56-2.02-.85-2.64-.51-1.07-1.42-1.81-2.55-2.09-.68-.17-1.58-.25-2.83-.25s-2.27,1.02-2.27,2.27v42.43"/>
    <path id="PATH_N2_2" class="cls-4 motion-path" d="M246.11,1.64v41.36c0,1.32-1.02,2.4-2.27,2.4s-2.16-.1-2.87-.31c-1.13-.33-2.02-1.12-2.52-2..c-.98-.98"/>
    <path id="PATH_U_1" class="cls-4 motion-path" d="M361..73v38..05c0,..38,.79,..04,..48,.5..,.9,...,-..,,...,-...,-...s...,-...,-...s...,-...,.-...,.-...,.-...,.-...,.-...,.-...,.-...,.-...,.-...,.-...,.-...,.-...,.-...,.-...,.-...,.-...,.-...,.-...,.-..."/>
  </g>
</svg>